<?xml version="1.0" standalone="no"?>
<!DOCTYPE svg PUBLIC "-//W3C//DTD SVG 20010904//EN"
 "http://www.w3.org/TR/2001/REC-SVG-20010904/DTD/svg10.dtd">
<svg version="1.0" xmlns="http://www.w3.org/2000/svg"
 width="260.000000pt" height="260.000000pt" viewBox="0 0 260.000000 260.000000"
 preserveAspectRatio="xMidYMid meet">
<metadata>
Created by potrace 1.11, written by Peter Selinger 2001-2013
</metadata>
<g transform="translate(0.000000,260.000000) scale(0.100000,-0.100000)"
fill="#000000" stroke="none">
<path d="M0 1300 l0 -1300 1300 0 1300 0 0 1300 0 1300 -1300 0 -1300 0 0
-1300z m1080 420 l0 -110 -115 0 -115 0 0 -395 0 -395 -130 0 -130 0 0 395 0
395 -115 0 -115 0 0 110 0 110 360 0 360 0 0 -110z m515 -115 c54 -124 101
-225 105 -225 4 0 47 100 97 223 l89 222 142 3 142 3 0 -506 0 -505 -125 0
-125 0 0 288 -1 287 -84 -195 -83 -195 -55 -3 -54 -3 -86 193 -87 193 0 -282
0 -283 -120 0 -120 0 0 505 0 505 133 0 134 0 98 -225z"/>
</g>
</svg>
